<svg width="32" height="32" viewBox="0 0 32 32" fill="none" xmlns="http://www.w3.org/2000/svg">
<path d="M16.0001 4C16.7365 4 17.3334 4.59695 17.3334 5.33333V26.6667C17.3334 27.403 16.7365 28 16.0001 28C15.2637 28 14.6667 27.403 14.6667 26.6667V5.33333C14.6667 4.59695 15.2637 4 16.0001 4Z" fill="#0A0A0A"/>
<path d="M24.0001 12C24.7365 12 25.3334 12.597 25.3334 13.3333V26.6667C25.3334 27.403 24.7365 28 24.0001 28C23.2637 28 22.6667 27.403 22.6667 26.6667V13.3333C22.6667 12.597 23.2637 12 24.0001 12Z" fill="#0A0A0A"/>
<path d="M9.33341 18.6667C9.33341 17.9303 8.73646 17.3333 8.00008 17.3333C7.2637 17.3333 6.66675 17.9303 6.66675 18.6667V26.6667C6.66675 27.403 7.2637 28 8.00008 28C8.73646 28 9.33341 27.403 9.33341 26.6667V18.6667Z" fill="#0A0A0A"/>
</svg>
