<svg width="32" height="32" viewBox="0 0 32 32" fill="none" xmlns="http://www.w3.org/2000/svg">
<path fill-rule="evenodd" clip-rule="evenodd" d="M5.33341 14.6667C5.33341 9.51209 9.51209 5.33341 14.6667 5.33341C19.8214 5.33341 24.0001 9.51209 24.0001 14.6667C24.0001 17.1819 23.0052 19.4646 21.3876 21.143C21.3425 21.1778 21.2991 21.2158 21.2578 21.2571C21.2164 21.2985 21.1784 21.3419 21.1436 21.387C19.4652 23.005 17.1822 24.0001 14.6667 24.0001C9.51209 24.0001 5.33341 19.8214 5.33341 14.6667ZM22.1574 24.0423C20.1044 25.6847 17.5003 26.6667 14.6667 26.6667C8.03933 26.6667 2.66675 21.2942 2.66675 14.6667C2.66675 8.03933 8.03933 2.66675 14.6667 2.66675C21.2942 2.66675 26.6667 8.03933 26.6667 14.6667C26.6667 17.4999 25.6849 20.1038 24.0429 22.1566L28.9434 27.0571C29.4641 27.5778 29.4641 28.4221 28.9434 28.9428C28.4227 29.4635 27.5785 29.4635 27.0578 28.9428L22.1574 24.0423Z" fill="#0A0A0A"/>
</svg>
