<svg width="32" height="32" viewBox="0 0 32 32" fill="none" xmlns="http://www.w3.org/2000/svg">
<g clip-path="url(#clip0_302_1396)">
<path fill-rule="evenodd" clip-rule="evenodd" d="M1.33333 0C0.596954 0 0 0.596954 0 1.33333C0 2.06971 0.596954 2.66667 1.33333 2.66667H5.57375L6.6826 8.20677C6.68851 8.24471 6.69602 8.28212 6.70505 8.31894L8.93244 19.4476C9.11551 20.3679 9.61633 21.1946 10.3473 21.783C11.0749 22.3688 11.9845 22.6813 12.9182 22.6667H25.8551C26.7888 22.6813 27.6984 22.3688 28.426 21.783C29.1573 21.1943 29.6583 20.3672 29.8412 19.4464L31.9764 8.24977C32.0508 7.85944 31.9473 7.45624 31.694 7.15007C31.4407 6.8439 31.064 6.66667 30.6667 6.66667H9.09391L7.97407 1.07166C7.84935 0.448514 7.30217 0 6.66667 0H1.33333ZM11.5478 18.9269L9.62764 9.33333H29.055L27.2247 18.9312C27.163 19.2364 26.9965 19.5105 26.7539 19.7058C26.5101 19.902 26.2051 20.0062 25.8922 20.0002L25.8667 20H12.9067L12.8811 20.0002C12.5683 20.0062 12.2632 19.902 12.0195 19.7058C11.7757 19.5096 11.6087 19.2338 11.5478 18.9269Z" fill="#0A0A0A"/>
<path d="M12 30.6667C13.4728 30.6667 14.6667 29.4728 14.6667 28C14.6667 26.5272 13.4728 25.3333 12 25.3333C10.5272 25.3333 9.33333 26.5272 9.33333 28C9.33333 29.4728 10.5272 30.6667 12 30.6667Z" fill="#0A0A0A"/>
<path d="M26.6667 30.6667C28.1394 30.6667 29.3333 29.4728 29.3333 28C29.3333 26.5272 28.1394 25.3333 26.6667 25.3333C25.1939 25.3333 24 26.5272 24 28C24 29.4728 25.1939 30.6667 26.6667 30.6667Z" fill="#0A0A0A"/>
</g>
<defs>
<clipPath id="clip0_302_1396">
<rect width="32" height="32" fill="white"/>
</clipPath>
</defs>
</svg>
