<svg width="24" height="24" viewBox="0 0 24 24" fill="none" xmlns="http://www.w3.org/2000/svg">
<path fill-rule="evenodd" clip-rule="evenodd" d="M7.42169 20.2583C8.86747 21.039 10.4337 21.4595 12.1807 21.4595C17.6024 21.4595 22 17.1351 22 11.7297C22 6.32433 17.6024 2 12.1807 2C6.75904 2 2.36145 6.32433 2.36145 11.7297C2.36145 13.5916 2.84337 15.3333 3.74699 16.7748L2 22L7.42169 20.2583ZM16.8443 13.7215C16.7989 13.7002 16.7502 13.6773 16.6987 13.6516C16.4576 13.5314 15.2529 12.9309 15.0722 12.8708C14.8312 12.8108 14.6505 12.8108 14.53 13.051C14.3493 13.2912 13.9276 13.8318 13.7469 14.012C13.6264 14.1921 13.4456 14.1921 13.2047 14.072C13.1647 14.0521 13.1098 14.0288 13.0419 14.0001C12.7005 13.8556 12.0307 13.5721 11.277 12.8708C10.5541 12.2101 10.0722 11.4894 9.95167 11.2492C9.83119 11.0089 9.95167 10.8888 10.0722 10.7687C10.1324 10.7086 10.1926 10.6336 10.2529 10.5585C10.3131 10.4834 10.3734 10.4083 10.4336 10.3483C10.5541 10.2282 10.6143 10.108 10.6746 9.92787C10.7348 9.74769 10.7348 9.62757 10.6746 9.50745C10.6426 9.44365 10.4916 9.07489 10.33 8.68012C10.1874 8.33161 10.0364 7.96283 9.95167 7.76571C9.7877 7.32976 9.57414 7.33879 9.44597 7.34421C9.43287 7.34477 9.42067 7.34528 9.4095 7.34528H8.92757C8.74685 7.34528 8.50589 7.40534 8.26492 7.64558C8.02396 7.82577 7.42155 8.42637 7.42155 9.56751C7.42155 10.6681 8.12951 11.6678 8.34082 11.9662C8.36014 11.9935 8.37531 12.0149 8.3854 12.03C8.38909 12.0355 8.39414 12.0431 8.40052 12.0528C8.60258 12.3595 10.1459 14.702 12.4818 15.6336C14.5685 16.4455 14.8922 16.3571 15.1968 16.2739C15.2527 16.2586 15.3079 16.2435 15.3734 16.2342C15.795 16.1741 16.8191 15.6336 16.9999 15.093C17.2408 14.5525 17.2408 14.072 17.1806 13.9519C17.1332 13.8574 17.0114 13.8001 16.8443 13.7215Z" fill="#9AC45E"/>
</svg>
