<svg width="168" height="40" viewBox="0 0 168 40" fill="none" xmlns="http://www.w3.org/2000/svg">
<g clip-path="url(#clip0_2_2407)">
<path d="M28.4873 7.48315V10.3838L29.8871 11.2126V8.31192L28.4873 7.48315Z" fill="#CDDB91"/>
<path d="M27.0874 6.63013V9.5308L28.4626 10.3596V7.48327L27.0874 6.63013Z" fill="#9CC55F"/>
<path d="M25.7368 5.80127V8.70194L27.112 9.5307V6.63003L25.7368 5.80127Z" fill="#87BB76"/>
<path d="M89.3415 24.9604H93.8601L99.4102 17.6234L93.2462 9.82324H88.8994L94.6951 17.3065L89.3415 24.9604Z" fill="#9CC55F"/>
<path d="M105.255 9.82324H100.196L97.3229 13.2114L95.8248 11.7733L95.6038 12.0414L99.8278 17.1359L105.255 9.82324ZM96.1195 22.7666L96.3405 22.9616L97.7403 21.5234L100.368 24.9603H105.059L99.9014 18.1352L96.1195 22.7666ZM50.2455 9.75011C47.6915 9.75011 46.218 11.2858 45.5059 12.407C45.1375 11.6514 43.9342 9.75011 40.8153 9.75011C39.9312 9.75011 37.9666 9.92074 36.4195 11.8951V9.82324H32.2692V24.9116H36.4195V17.404C36.4195 16.624 36.4686 15.454 36.9843 14.5521C37.4263 13.7721 38.1385 13.2602 39.2682 13.2602C39.6611 13.2602 40.4224 13.3333 40.9872 14.0158C41.3065 14.3814 41.6748 15.1614 41.6748 16.8921V24.8872H45.8251V17.4284C45.8251 16.6483 45.8742 15.4783 46.3899 14.5764C46.832 13.7964 47.5442 13.2845 48.6738 13.2845C49.0667 13.2845 49.828 13.3577 50.3929 14.0402C50.7121 14.4058 51.0805 15.1858 51.0805 16.9165V24.9116H55.2553V15.7221C55.2553 14.0889 55.1816 12.8458 54.2239 11.6026C53.6345 10.7983 52.5294 9.75011 50.2455 9.75011ZM66.5028 9.57949C65.2258 9.57949 63.1629 9.92074 61.6895 11.9439V9.79886H57.5392V30.7129H61.6895V22.8397C63.2857 25.0335 65.4468 25.2041 66.4046 25.2041C70.7759 25.2041 73.7719 21.8403 73.7719 17.3796C73.7719 12.9189 70.8495 9.57949 66.5028 9.57949ZM65.3731 21.304C62.991 21.304 61.2965 19.4759 61.2965 17.1359C61.2965 14.7958 63.0156 13.0164 65.3731 13.0164C67.7307 13.0164 69.4497 14.7958 69.4497 17.1359C69.4497 19.4759 67.7798 21.304 65.3731 21.304ZM25.7368 24.936H29.8871V13.2602L25.7368 10.7495V24.936V24.936ZM89.2188 17.5015C89.2188 15.9171 89.0223 13.6014 87.5734 11.7489C86.6156 10.5545 85.0194 9.36011 82.2444 9.36011C80.599 9.36011 78.708 9.72574 77.1118 11.432C76.1295 12.4802 75.0244 14.2839 75.0244 17.1846C75.0244 19.4759 75.6629 21.3772 77.1854 22.9128C78.5361 24.3022 80.1815 24.8385 82.4163 24.9847C82.4163 24.9847 83.5214 25.0822 84.3809 25.0822C85.4369 25.0579 86.4437 24.9847 86.4437 24.9847C87.2787 24.936 88.0154 24.6191 88.482 23.9853V21.7184H82.4163C80.9428 21.6697 80.0833 20.9384 79.6658 20.329C79.2237 19.6953 79.0027 18.7446 79.0027 17.8671H89.2433L89.2188 17.5015ZM79.1255 15.2346C79.4448 13.2845 80.9182 12.2852 82.3426 12.2852C83.7669 12.2852 85.265 13.2358 85.5842 15.2346H79.1255Z" fill="black"/>
<path d="M4.83789 18.0134L6.63061 16.234L5.25537 14.8446L7.66204 12.4315L9.06183 13.8209L15.1522 7.77576L17.5834 10.1646L11.4685 16.234L13.2858 18.0134L19.3516 11.9927V5.70386H0V13.2115L4.83789 18.0134Z" fill="#9CC55F"/>
<path d="M15.6924 20.4266L13.2858 22.8154L10.8791 20.4266L9.06183 18.6228L7.24456 20.4266L4.83789 22.8154L2.40667 20.4266L0 18.0134V24.9117H19.3516V16.7947L15.6924 20.4266Z" fill="#9CC55F"/>
<path d="M4.32206 39.0737H3.56077L3.46254 37.3918C3.43798 36.8067 3.38886 36.173 3.41342 35.7342L2.67669 38.6349H1.93995L1.1541 35.7342C1.17866 36.2705 1.1541 36.8311 1.12954 37.4161L1.03131 39.0737H0.27002L0.589271 35.0273H1.59614L2.30832 37.8549L2.99594 35.0273H4.00281L4.32206 39.0737Z" fill="black"/>
<path d="M9.60175 35.6124H8.10372V36.7336H9.40528V37.2943H8.10372V38.4886H9.69998V39.0737H7.31787V35.0273H9.67542L9.60175 35.6124Z" fill="black"/>
<path d="M15.7166 38.4643V39.9999H15.1518L15.0536 39.0737H12.8188L12.7206 39.9999H12.1558V38.4643H12.4505C12.7206 38.1718 12.7943 37.7574 12.9907 36.2461L13.1381 35.0273H15.3728V38.4643H15.7166ZM14.6115 35.6124H13.8011L13.7275 36.2217C13.5801 37.6599 13.4573 38.1474 13.0644 38.4643H14.587V35.6124H14.6115Z" fill="black"/>
<path d="M21.6107 39.0737H20.8494V37.3674C20.8494 36.6849 20.923 36.173 20.9722 35.8317L19.5969 39.0737H18.6392V35.0273H19.4005V36.758C19.4005 37.4893 19.3513 37.9036 19.2777 38.2693L20.6775 35.0273H21.6107V39.0737Z" fill="black"/>
<path d="M28.1922 38.4643V39.9999H27.6274L27.5291 39.0737H24.8032V35.0273H25.5891V38.4399H26.9643V35.0273H27.7502V38.4643H28.1922Z" fill="black"/>
<path d="M34.0125 39.0737H33.2512V37.3674C33.2512 36.6849 33.3249 36.173 33.374 35.8317L31.9988 39.0737H31.041V35.0273H31.8023V36.758C31.8023 37.4893 31.7532 37.9036 31.6795 38.2693L33.0793 35.0273H34.0125V39.0737Z" fill="black"/>
<path d="M39.4398 37.2699H37.9909V39.0737H37.2051V35.0273H37.9909V36.6361H39.4398V35.0273H40.2257V39.0737H39.4398V37.2699Z" fill="black"/>
<path d="M45.309 38.1232H43.9583L43.7128 39.0495H42.9023L44.1793 35.0032H45.1371L46.3896 39.0495H45.5546L45.309 38.1232ZM45.1371 37.5382L44.6214 35.6126L44.1057 37.5382H45.1371Z" fill="black"/>
<path d="M55.6231 37.7574C55.6231 38.6836 54.9601 39.0737 54.0269 39.0737H52.7744V35.0273H55.1565L55.0829 35.6367H53.5603V36.5142H54.0514C55.0092 36.5142 55.6231 36.9042 55.6231 37.7574ZM54.8127 37.7574C54.8127 37.2699 54.518 37.0505 54.0023 37.0505H53.5603V38.4643H54.0269C54.4935 38.4886 54.8127 38.318 54.8127 37.7574Z" fill="black"/>
<path d="M60.756 35.6124H59.258V36.7336H60.5596V37.2943H59.258V38.4886H60.8543V39.0737H58.4722V35.0273H60.8297L60.756 35.6124Z" fill="black"/>
<path d="M63.2852 38.5862L63.7272 38.1719C63.9728 38.4156 64.2429 38.5375 64.6113 38.5375C65.1024 38.5375 65.3726 38.2937 65.3726 37.8794C65.3726 37.465 65.1024 37.2212 64.5621 37.2212H64.1447L64.2429 36.6362H64.5621C64.9796 36.6362 65.2498 36.4168 65.2498 36.0512C65.2498 35.7587 65.0779 35.5149 64.6604 35.5149C64.3657 35.5149 64.071 35.6368 63.7763 35.8562L63.4079 35.4418C63.7763 35.1006 64.2183 34.9299 64.7586 34.9299C65.6181 34.9299 66.0847 35.3931 66.0847 35.9781C66.0847 36.4656 65.7655 36.7825 65.2252 36.9043C65.79 36.9531 66.2075 37.2943 66.2075 37.9037C66.2075 38.6594 65.569 39.1469 64.6604 39.1469C64.071 39.1469 63.6044 38.9519 63.2852 38.5862Z" fill="black"/>
<path d="M75.1957 35.6611H73.5749V39.0737H72.7891V35.0273H75.2694L75.1957 35.6611Z" fill="black"/>
<path d="M80.8932 36.3192C80.8932 37.2455 80.2055 37.6599 79.2969 37.6599H78.8303V39.0737H78.0444V35.0273H79.2478C80.2792 35.0273 80.8932 35.4417 80.8932 36.3192ZM80.0827 36.3192C80.0827 35.8074 79.7635 35.6124 79.2478 35.6124H78.8303V37.0992H79.2478C79.7635 37.0749 80.0827 36.9042 80.0827 36.3192Z" fill="black"/>
<path d="M85.3139 38.1232H83.9632L83.7176 39.0495H82.9072L84.1842 35.0032H85.142L86.3944 39.0495H85.5594L85.3139 38.1232ZM85.142 37.5382L84.6263 35.6126L84.1105 37.5382H85.142Z" fill="black"/>
<path d="M91.306 37.2699H89.8571V39.0737H89.0713V35.0273H89.8571V36.6361H91.306V35.0273H92.0919V39.0737H91.306V37.2699Z" fill="black"/>
<path d="M98.2556 39.0737H97.4944V37.3674C97.4944 36.6849 97.568 36.173 97.6171 35.8317L96.2419 39.0737H95.2842V35.0273H96.0455V36.758C96.0455 37.4893 95.9964 37.9036 95.9227 38.2693L97.3225 35.0273H98.2556V39.0737Z" fill="black"/>
<path d="M104.862 38.4643V39.9999H104.297L104.199 39.0737H101.448V35.0273H102.234V38.4399H103.609V35.0273H104.395V38.4643H104.862Z" fill="black"/>
<path d="M123.403 4.31433C123.403 4.31433 113.653 22.0352 112.917 26.4472C112.033 31.7366 114.783 32.0535 118.172 30.7616C121.536 29.4453 131.04 28.3728 131.826 28.5922C132.587 28.8116 133.914 26.6909 130.991 26.6909C128.093 26.6909 118.197 27.4466 117.386 27.8853C118.27 24.1803 120.088 19.0614 126.423 6.36186C127.479 4.21683 127.16 3.85119 126.399 3.68057C125.613 3.48556 124.164 2.97368 123.403 4.31433Z" fill="#9CC55F"/>
<path d="M138.408 10.9446C138.408 10.9446 133.3 23.1566 133.472 24.8385C133.643 26.5204 136.369 28.1536 136.369 28.1536C136.369 28.1536 141.035 12.9921 141.87 12.1877C140.642 10.9446 138.948 11.1152 138.408 10.9446Z" fill="#9CC55F"/>
<path d="M143.073 3.92432C143.073 3.92432 139.611 3.92432 139.611 6.80061C139.611 9.67691 143.098 8.72627 143.884 7.77563C144.94 6.55686 145.308 3.92432 143.073 3.92432Z" fill="#9CC55F"/>
<path d="M156.9 2.46184C155.549 3.94873 154.321 6.04502 153.167 8.48255C156.04 8.58006 158.594 8.75068 158.594 8.75068C158.594 8.75068 158.766 9.38444 158.103 10.0182C157.194 9.8232 154.911 9.94508 152.406 10.1888C148.108 20.2315 145.259 34.5155 143.663 36.3924C141.969 35.2223 140.151 32.9798 140.151 32.9798C140.323 30.5179 144.056 19.3296 148.034 10.652C146.045 10.8957 144.424 11.1395 143.884 11.2613C143.614 10.6032 145.431 8.70193 145.431 8.70193C145.873 8.45818 147.322 8.38505 149.115 8.36068C151.399 3.72936 153.634 0.219301 155.279 -0.0488281C158.398 -0.0488281 160.068 2.07183 160.068 2.07183C160.068 2.07183 158.373 1.85245 156.9 2.46184Z" fill="#9CC55F"/>
<path d="M167.951 14.1133C168.442 10.9445 164.267 9.48193 162.99 9.48193C161.689 9.48193 155.991 11.2857 152.75 21.9134C152.136 24.6434 154.641 27.1297 157.588 27.4466C160.559 27.7635 166.748 21.8159 167.337 20.0608C166.306 19.8902 166.281 20.1096 166.281 20.1096C166.281 20.1096 160.043 25.1553 158.201 25.2528C156.63 24.6434 156.237 22.4009 157.98 19.939C158.005 19.939 164.979 20.2802 167.951 14.1133ZM163.408 11.1151C166.33 12.0413 164.906 14.9664 163.113 16.5995C161.099 18.4521 158.668 18.6227 158.668 18.4764C160.019 15.2101 163.408 11.1151 163.408 11.1151Z" fill="#9CC55F"/>
</g>
<defs>
<clipPath id="clip0_2_2407">
<rect width="168" height="40" fill="white"/>
</clipPath>
</defs>
</svg>
